<?xml version="1.0" encoding="UTF-8"?>
<svg id="a" data-name="Layer 1" xmlns="http://www.w3.org/2000/svg" viewBox="0 0 133.56 200">
  <defs>
    <style>
      .b {
        fill: #110a05;
      }

      .c {
        fill: #060704;
      }

      .d {
        fill: #234527;
      }

      .e {
        fill: #78e084;
      }

      .f {
        fill: #020603;
      }

      .g {
        fill: #1c1c10;
      }

      .h {
        fill: #24180f;
      }

      .i {
        fill: #af754c;
      }

      .j {
        fill: #060f07;
      }

      .k {
        fill: #010100;
      }

      .l {
        fill: #071109;
      }

      .m {
        fill: #131e14;
      }

      .n {
        fill: #100a05;
      }

      .o {
        fill: #090c07;
      }

      .p {
        fill: #050c06;
      }

      .q {
        fill: #cf8a5b;
      }

      .r {
        fill: #77e084;
      }

      .s {
        fill: #70d17c;
      }

      .t {
        fill: #0b0603;
      }

      .u {
        fill: #0d0704;
      }

      .v {
        fill: #040704;
      }

      .w {
        fill: #3c322b;
      }

      .x {
        fill: #152113;
      }

      .y {
        fill: #0e160c;
      }

      .z {
        fill: #0a0603;
      }

      .aa {
        fill: #13140c;
      }

      .ab {
        fill: #0c0703;
      }

      .ac {
        fill: #060d07;
      }

      .ad {
        fill: #cf8a5a;
      }

      .ae {
        fill: #040804;
      }

      .af {
        fill: #090b05;
      }
    </style>
  </defs>
  <path class="e" d="M56.71,77.76c1.37,.62,2.69,1.48,4.29,.75,.89,2.17-1.05,3.44-1.63,5.14-.14,.19-.32,.34-.51,.46-.31,.18-.29,.41-.07,.65,5.99,6.4,12.06,12.72,18.06,19.11,2.33,2.48,3.26,2.43,5.55-.15,4.67-5.27,9.13-10.7,12.69-16.84-.62-.26-.92,.65-1.52,.43-.39-.15-.68-.42-.88-.78-.21-.41-.31-.86-.45-1.29-1.16-3.62-.29-4.87,3.56-4.72,3.04,.11,5.65,1.41,7.62,3.78,.94,1.13,1.98,2.1,3.21,2.93,2.29,1.55,2.6,2.69,1.46,5.29-.59,1.35,.97,1.11,1.15,1.84,2.69,2.17,5.1,4.62,7.57,7.03,3.37,3.87,5.78,8.21,6.89,13.28,.85,3.85,1.7,7.7,2.28,11.61,.38,2.6-.04,2.96-2.54,2.61-2.2-.31-4.33-.55-5.75-2.68-.67-.99-2.16-1.23-2.95-.35-1.84,2.04-4.14,1.62-6.39,1.67-1.38,.03-2.76,.1-4.13-.06-2.13-.25-3.67-1.29-3.78-3.6-.1-2.13-1.17-2.01-2.53-1.23-1.6,.92-3.26,1.23-5.03,.75-1.4-.38-2.29,.24-2.97,1.37-.88,1.48-2.16,2.44-3.77,3.06-2.41,.92-4.07,2.78-5.59,4.75-1.13,1.47-2.37,2.79-3.83,3.93-2.69,2.16-5.46,4.22-7.95,6.62-.82,.81-1.42,1.73-1.65,2.88-.76,4.64-.74,9.15,2.29,13.11,1.34,1.76,.67,2.96-.83,4.16-11.44,9.21-23.46,17.56-36.55,24.28-3.91,2.01-7.81,4.04-11.81,5.87-3.49,1.6-7.08,2.68-10.73,.3-2.34-1.94-3.6-4.62-4.79-7.28-2.16-4.81-3.12-9.86-3.33-15.19-.91-22.86,5.3-43.74,16.69-63.37,6.41-11.05,16.09-17.21,28.1-20.34,.35-.1-.1-.41,.07-.08,.02,.05-.06,.09-.24,.13-3.77,.84-7.34,2.24-10.89,3.73-1,.42-2.11,1.11-3.1,.27-1.12-.95-.93-2.37-.54-3.59,1.12-3.48,4.26-4.67,7.27-5.08,3.49-.47,6.01-1.59,8.31-4.42,2.6-3.21,6.29-2.12,9.65-.75Z"/>
  <path class="e" d="M112.81,196.26c-5.63,1.79-11.5,2.19-17.32,2.58-12.88,.85-25.8,1.42-38.71,1.04-12.43-.37-24.91-.26-37.2-2.57-1.62-.3-3.2-.7-4.64-1.56,1.98-1.64,4.61-1.55,6.84-2.62,16.95-8.1,32.84-17.85,47.31-29.86,.56-.47,1.07-1.13,1.79-1.24,2.35-.37,3.93-1.32,3.82-4.05-.02-.57,.74-.71,1.33-.7,2.63,.2,5.27,.71,7.89,.68,5.11-.06,8.53-3.29,11.51-7,.63-.78,1.19-1.6,1.94-2.27,1.69-1.03,.08-2.71,.75-3.94,1.72-.65,3.32-1.21,3.52-3.59,.13-1.49,1.82-1.53,3.08-1.73,1.46,0,2.2,.82,2.18,2.18-.04,2,.85,3.65,1.71,5.33,.08,.26,.1,.53,.09,.8-1.12,4-.97,4.5,1.91,6.4,1.83,1.11,.93,3.43,2.14,4.82,.2,.61,.24,1.23,.15,1.86-.21,4.02,.59,7.97,.86,11.96,.33,4.84-.19,9.62-.11,14.42,.03,1.92,0,3.83,.04,5.75,.03,1.16,.15,2.4-.87,3.31Z"/>
  <path d="M58.91,83.89c.16-2.01,1.75-3.45,2.1-5.38,.3-.86,.54-1.75,.9-2.59,.58-1.34,.45-2.34-.86-3.27-1.03-.73-1.91-1.72-2.7-2.72-1.28-1.62-2.32-3.39-4.93-2.56-.89,.28-1.77-.42-2.3-1.22-.49-.73-.89-1.14-1.95-.94-2.44,.46-2.71-1.13-2.01-2.82,.7-1.71,.51-2.81-.69-4.32-3.14-3.94-3.61-11.06-.78-14.14,.66-.72,.59-1.37,.35-2.24-2.6-9.56-1.41-18.68,3.36-27.34,.22-.4,.76-.97,.65-1.15-1.72-2.74,.09-4.78,1.02-7.19,.93-2.39,2.09-3.36,4.32-1.96,.77,.48,1.2,.98,2.33,.44C66.92,.06,76.73-.54,86.71,.35c5.15,.46,10.1,2.17,15.35,2.34,1.8,.06,3.9,2.18,5.21,3.78,.89,1.08,1.3,2.59,2.54,3.77,1.57,1.48,.44,3.42-.51,5.03-2.62,4.43-3.85,9-2.4,14.22,2.3,8.3,2.45,16.83,2.03,25.38-.04,.72-.2,1.54,.06,2.15,3.56,8.12-.87,17.62-8.99,22.09-.43,.24-1.12,.23-1.31,1.17,2.88,.67,5.22,2.14,6.79,4.81,.45,.76,1.68,1.03,2.5,1.6,1.51,1.05,2.49,2.39,2.17,4.37-.63,.81-.2,1.74-.31,2.61-.07,.58,.18,1.36-.88,1.25-1.06-.83-2.13-1.65-3.18-2.47,.78-.96,1.58,1.06,2.09-.12,.42-.97,.93-2.5-.06-3.09-3.79-2.22-5.51-7.19-10.46-7.81-.45-.06-.89-.25-1.33-.28-3.07-.2-3.94,.96-2.99,3.88,.17,.51,.16,1.07,.24,1.61-1.56,1.86-2.39,.09-2.59-.85-.6-2.83-2.48-2.95-4.75-2.88-4.16,.14-8.01-.85-11.32-3.49-.67-.53-1.81-1.13-1.19-2.15,.53-.88,1.66-.53,2.54-.22,5.79,2.07,11.64,2.36,17.55,.56,4.65-1.41,8.48-4,10.9-8.27,1.79-3.15,2.24-6.57,1.05-10.1-.48-1.41-.72-2.84-.49-4.33,1.52-9.95,.18-19.74-1.55-29.51-.28-1.6-.99-2.43-2.6-2.67-1.35-.2-2.77-.34-3.99-.98-1.76-.91-2.96-1.21-3.39,1.4-.24,1.46-1.63,1.2-2.71,.77-1.71-.69-3.23-1.74-4.77-2.72-1.22-.77-1.83-.7-2.38,.81-.98,2.65-2.31,3.01-4.47,1.06-1.72-1.55-2.94-1.96-4.31,.25-.39,.62-1.21,1.15-1.9,.86-2.18-.9-2.68,.66-3.38,2.06-1.29,2.55-2.97,4.84-4.71,7.09-.51,.66-1.05,1.31-1.89,1.53-.83,.22-1.93-.81-2.5,.75-.63,1.7-1.85,3.2-1.3,5.2,.32,1.15,.5,2.33,.72,3.5,.27,1.41,.44,2.84-1.2,3.54-1.48,.63-2.87,.31-4.05-.83-.26-.26,.05,.08-.19-.2-1.2-1.44-2.4-3.03-4.58-1.97-2.02,.98-2.35,2.96-2.26,4.95,.17,3.59,1.06,6.76,5.17,7.77,.72,.18,1.37,.6,1.75,1.26,2.46,4.26,5.86,7.7,9.49,10.93,1.54,1.37,1.72,3.21,1.74,5.04,.03,3.32-3.73,8.25-6.8,9.11Z"/>
  <path class="k" d="M104.62,139.96c-1.45,.37-2.66,.56-2.65,2.78,0,2.06-2.33,2.13-3.95,2.57-1.93,1.62-4.19,.85-6.33,.82-.59,0-1.41-.18-1.33-1.05,.07-.71,.71-1.08,1.37-1.17,1.9-.29,3.83-.41,5.73-.74,.85-.15,2.13,.1,2.17-1.11,.04-1.11-1.2-1.23-2.05-1.47-2.16-.6-4.38-.25-6.57-.39-1.07-.07-2.43,.07-2.63-1.39-.19-1.38,1.02-1.87,2.06-2.2,3.34-1.07,6.81-1.46,10.29-1.7,1.76-.12,3.46-.4,5.11-1.01,.77-.29,1.76-.64,1.66-1.59-.12-1.09-1.24-.88-2-.87-3.57,.06-7.12,.56-10.68,.81-1.7,.12-4.13,1.04-4.8-.64-.69-1.75,1.86-2.4,3.2-3.09,2.19-1.13,2.87-3.81,5.26-4.74-1.73,.46-3.43,.49-5.14,.51-1.06,.01-1.82,.55-2.64,1.23-4.49,3.7-9.16,7.18-13.3,11.29-.12,.12-.34,.13-.52,.17-.48-.01-.86-.13-.85-.72,1.99-2.15,3.99-4.29,5.96-6.46,1.19-1.31,2.5-2.44,4.26-2.88,1.33-.34,2.32-1.04,2.86-2.33,.76-1.84,2.19-2.38,4.02-1.94,1.72,.41,3.24,.12,4.69-.87,.96-.65,2.08-.91,3.07-.14,.85,.67,.4,1.56,.28,2.49-.23,1.71,1.13,2.53,2.56,2.59,2.83,.13,5.68-.03,8.52-.08,.55,0,.96-.1,1.35-.67,1.43-2.13,4.2-2.09,5.2,.21,.61,1.41,1.42,1.82,2.7,1.65,1.45-.2,2.59,.66,4.2,1.1-1.84-9.78-2.46-19.7-9.49-27.46,.32-.82,.36-.81,1.59,.02,5.04,5.49,7.14,12.23,8.27,19.39,.44,2.81,.98,5.6,1.26,8.42,.16,1.61,1.32,1.2,2.18,1.47,1.45,.45,2.86,1.02,3.13,2.71,.28,1.75-.85,2.68-2.3,3.32-.19-.07-.37-.19-.36-.35,.12-1.33,1.23-2.83-.92-3.68-2.42-.95-4.89-.68-6.48,.94,.78,.93,1.86,.52,2.82,.65,.96,.13,2.28-.15,2.53,1.1,.25,1.22-1.07,1.54-1.88,2.07-.62,.4-1.23,.92-1.93,1.03-4.08,.61-7.94,2.09-11.97,2.9-.51-.11-.89-.48-1.38-.65-.62-.15-1.25-.23-1.87-.37-1.43-.06-2.73-1.08-4.23-.5Z"/>
  <path class="v" d="M56.71,77.76c-1.68,.38-3.22-.54-4.89-.51-2.29,.04-4.16,.67-5.23,2.83-1.09,2.2-2.81,3.2-5.28,3.2-2.53,0-4.86,.86-7,2.18-1.11,.68-2.12,1.52-2.31,2.91-.14,.99-.51,2.19,.27,2.9,.83,.75,1.67-.29,2.46-.61,3.97-1.61,7.9-3.3,12.94-3.72-1.88,1.48-3.5,1.95-5.05,2.44-11.41,3.62-19.62,10.81-25.37,21.33C7.09,129.27,1.59,148.92,1.98,170.14c.15,7.98,2.25,15.37,6.69,22.04,.35,.53,.82,.97,1.24,1.45,.29,.29,.34,.58,0,.86-7.32-3.85-8.41-11.19-9.24-18.1-2.53-20.98,2.32-40.72,11.24-59.61,2.27-4.8,4.85-9.43,7.86-13.81,1.67-2.43,3.41-4.87,5.81-6.55,2.64-1.84,4.38-3.62,3.56-7.27-.51-2.24,1.05-4.15,2.93-5.55,1.65-1.22,3.52-2.21,5.5-2.32,3.67-.21,6.59-1.01,9.02-4.31,1.97-2.67,6.98-1.89,10.12,.78Z"/>
  <path class="ad" d="M111.83,141.35c3.56-1.41,7.15-2.63,11-3.12,1.69-.22,3.25-1.42,5.14-2.31-1.76-1.33-3.52-.72-5.12-.92-.71-.09-1.58,.02-1.8-.89-.21-.85,.5-1.32,1.07-1.75,1.64-1.21,7.09-.94,8.65,.37,1.94,1.63-.33,2.72-.48,4.08-.17,.33-.34,.66-.5,.98-.34,.78,.04,1.47,.46,2.01,1.69,2.1,1.3,3.92-.59,5.62-.02,3.53-2.07,6.02-4.01,8.73-2.87,4.01-3.99,4.51-8.57,2.27-2.05-1.63-4.82-1.14-7.01-2.36-.57-.12-.97-.5-1.35-.89-.62-.63-.94-1.36-.58-2.23,.36-.9,1.18-.77,1.88-.7,3.97,.4,7.93,.12,11.9-.03,.37,0-.14-.57,.02-.24,.03,.05-.03,.09-.17,.1-3.9,.43-7.79,.47-11.7,.14-1.66-.14-2.4-.81-1.6-2.5l-.04,.04c.67-.91,1.74-1.12,2.69-1.54,.25-.12,.51-.2,.77-.28,2.91-.63,5.88-.51,8.81-.76,1.02-.31,2.1-.38,3.15-.56-1.36,.08-2.67,.46-4.02,.65-2.46-.08-4.88,.35-7.32,.37-1.27,.01-2.47-.27-2.73-1.68-.27-1.47,.47-2.42,2.03-2.61Z"/>
  <path class="ae" d="M117.31,155.69c4.7,2.41,4.93,2.34,7.78-2.37,.14-.23,.26-.52,.46-.66,2.46-1.7,3.65-3.99,3.4-7.01-.02-.19,.32-.42,.49-.63,.45-.07,.75,0,.52,.56-1.04,4.06,.36,7.96,.85,11.9,.74,5.9,2.4,11.66,2.7,17.65,.29,5.68-.66,11.02-4.2,15.57-3.43,4.41-7.8,6.88-13.65,5.48-1.03-.25-1.05-.18-1.17,1.65-.95-.13-1.38-.78-1.69-1.57-.37-8.51,.87-17.01,0-25.52-.27-2.64-.43-5.29-.76-7.92-.11-.84-.24-1.6,.3-2.32,1.44,.01,1.16,1.22,1.26,2,1.04,8.08,2.35,16.15,1.18,24.34-.1,.73-.08,1.47-.06,2.2,.08,2.86,1.42,4.23,4.27,4.13,3.57-.12,6.22-2,8.25-4.8,2.99-4.14,3.9-8.86,3.55-13.84-.49-6.95-2.58-13.66-3.13-20.74-2.19,1.61-2.68,2.93-1.96,5.17,.59,1.84,1.43,3.57,2.3,5.29,.37,.74,.77,1.46,1.03,2.25,.33,1.01,.52,2.11-.65,2.63-1.12,.5-1.65-.51-2.09-1.28-1.23-2.16-2.22-4.45-2.81-6.85-.36-1.47-.96-2.15-2.54-2.26-1.56-.11-3.04-.7-3.88-2.24-.04-.31,.04-.58,.25-.82Z"/>
  <path class="p" d="M9.91,194.49c0-.29,0-.58,0-.86,3.31,1.55,6.48,.68,9.54-.68,14.11-6.28,27.34-14.06,39.7-23.32,3.23-2.42,6.39-4.92,9.57-7.4,.7-.55,1.53-.98,.53-2.14-3.88-4.47-3.84-9.68-2.65-15.07,1.31,.45,1.2,1.69,1.44,2.7,.57,2.47,.9,4.99,1.97,7.32,.63,1.36,1.21,2.67,3.19,1.57,.83-.46,1.95-.3,2.83,.38,.12,.26,.09,.51-.07,.75-.7,.07-1.31,.16-.87,1.15,1.19,2.67-1.08,3.44-2.63,3.55-1.29,.09-1.96,.59-2.76,1.25-14.6,12.07-30.52,22.05-47.71,30.01-2.25,1.04-4.55,1.89-7.06,2.03-1.77-.02-3.49-.27-5.03-1.25Z"/>
  <path class="m" d="M117.76,101.5c-.53,.2-1.05-.66-1.59-.02-2.4-2.19-4.81-4.38-7.21-6.57,1.31-1.01-.2-2.88,1.19-3.86-.21,2.59,.86,4.38,3.06,5.82,1.8,1.18,3.38,2.74,4.55,4.63Z"/>
  <path class="w" d="M129.96,145.58c-.17-.19-.34-.38-.52-.56,1.52-1.56,1.96-3.17,.44-5.04-.49-.6-.96-1.42-.09-2.18,.33,.72,.53,1.55,1.01,2.15,1.8,2.23,1.35,4.04-.84,5.64Z"/>
  <path class="q" d="M58.91,83.89c2.96-1.92,4.97-4.7,5.98-7.96,.58-1.86,.46-4.18-1.39-5.68-3.16-2.56-5.82-5.64-8.27-8.81-1.38-1.79-2.49-3.11-4.81-3.94-3.67-1.31-4.93-9.42-2.33-12.43,1.73-2,4.17-1.96,5.83,.14,.4,.5,.67,1.09,1.07,1.58,1.02,1.26,2.32,.9,3.52,.44,1.28-.49,1.07-1.57,.68-2.56-1.67-4.18-1.03-7.99,2.18-11.57,.56,.02,.09,1.65,1.17,1.39,.81-.19,1.08-.94,1.53-1.5,2.68-3.27,4.95-6.79,6.69-10.69,2.49,2.38,2.61,2.33,5.63-2.4,1.16,1.03,2.24,2.12,3.45,3.04,2.09,1.58,2.56,1.37,3.12-1.23,.17-.8,.31-1.61,.52-2.78,2.22,1.33,4.26,2.6,6.35,3.78,2.98,1.69,2.99,1.66,3.29-1.64,.04-.44,.18-.87,.33-1.62,2.82,1.75,5.75,2.56,8.87,2.63,1.24,.03,1.39,.93,1.55,1.86,1.77,10.59,3.46,21.19,1.64,31.97-.16,.96,.2,1.79,.48,2.66,1.9,5.78,.13,12.04-4.79,15.77-7.55,5.72-15.94,6.39-24.78,3.59-.94-.3-1.78-1.03-3.14-.53,3.16,3.18,6.96,4.52,11.18,4.88,1.09,.09,2.21,.15,3.3,.02,1.92-.22,3.11,.12,3.24,2.44,.05,.89,.11,2.92,2.23,1.87,.14,.15,.29,.31,.43,.46,.63,1.01-.09,1.76-.57,2.49-3.3,5.09-7.21,9.72-11.21,14.25-1.76,1.99-3.06,1.99-5.03-.29-4.21-4.86-8.91-9.24-13.34-13.87-1.27-1.32-2.51-2.67-3.91-3.86-.59-.5-1.49-.97-.71-1.99l-.02,.06Z"/>
  <path class="q" d="M75.97,157.18c-1.34,.14-2.97-1.01-3.89,1.15-.28,.65-.99-.44-1.33-.82-2.42-2.84-2.72-6.45-3.45-9.9-.18-.87-.03-1.84-.72-2.58,.35-.84,.76-1.63,1.67-2,2.69-2.18,5.27-4.52,8.25-6.32,2.04-1.29,3.65-3.07,5.17-4.88,1.63-1.94,3.34-3.62,5.86-4.28,.51-.13,1.25-.42,1.38-.81,1.17-3.39,3.81-3.38,6.66-3.07,.94,.1,1.76-.41,2.55-.88,.62-.37,1.49-.91,1.96-.17,.55,.88-.39,1.55-1.02,1.97-3.17,2.16-5.48,5.44-9.27,6.88,3.45,.64,6.71-.37,10.01-.4,2.29-.02,4.57-.24,6.85-.36,.97-.05,1.94,.07,2.16,1.2,.2,1.04-.53,1.7-1.36,2.16-1.89,1.06-3.99,1.29-6.09,1.45-3.65,.27-7.29,.67-10.82,1.69-.78,.22-2.06,.17-1.8,1.53,.24,1.26,1.34,.62,2.04,.64,2.65,.06,5.31-.04,7.91,.69,1.22,.34,2.43,1.02,2.26,2.35-.16,1.24-1.51,1.39-2.65,1.47-2.01,.14-4.02,.28-6.02,.45-.59,.05-1.51-.22-1.51,.69,0,.98,.91,.62,1.47,.6,1.92-.09,3.83-.23,5.74-.35,1.14,1.14,1.84,2.29,.11,3.52-.55,.32-1.13,.6-1.69,.9-.74,.39-2.67-.19-1.58,1.84,.13,.24-.26,.65-.52,.91-2.8,2.85-5.94,5.28-10.02,5.64-2.77,.24-5.59-.25-8.33-.92Z"/>
  <path class="af" d="M58.93,83.83c-.06,.75,.44,1.14,.93,1.57,6.44,5.56,12.22,11.78,17.9,18.09,.89,.99,1.63,2.06,3.02,.52,4.75-5.3,9.39-10.68,12.91-16.92,1.01-.51,1.23-2.86,2.42-1.98,1.19,.89-.43,2.24-1.06,3.25-3.6,5.77-7.91,11.01-12.41,16.09-2.47,2.78-3.61,2.84-6.23,.05-6.54-6.94-13.02-13.94-19.64-21.04,.79,.13,1.47,.25,2.15,.36Z"/>
  <path class="f" d="M17.12,163.26c3.96-1.67,7.9-3.38,11.88-4.98,1.13-.45,1.64-1.07,1.99-2.28,.85-2.91,1.98-5.74,3.48-8.46-.57,2.9-1.13,5.81-1.78,9.16,6.13-2.43,11.87-4.69,17.59-6.97,4.5-1.79,8.99-3.6,13.5-5.35,.69-.27,1.69-1.01,2.12,.15,.35,.93-.78,1.07-1.37,1.3-15.56,6.1-30.98,12.58-46.81,18-.58,.22-.7-.06-.6-.56Z"/>
  <path class="j" d="M84.6,108.1c2.57-4.3,6.36-7.44,10.03-10.67,2.88-2.55,5.71-5.14,8.27-8.01,.51-.58,1.07-1.65,1.94-.95,1.01,.82,.03,1.76-.52,2.34-3.4,3.59-7.18,6.78-11.11,9.77-3.04,2.31-5.58,5.17-8.61,7.53Z"/>
  <path class="l" d="M54.34,94.25c1.97,2.09,3.94,4.18,5.89,6.28,4.19,4.49,8.27,9.11,14.18,11.5,.55,.22,1.39,.46,1.02,1.32-.46,1.07-1.28,.37-1.86,.12-2.72-1.14-5.13-2.77-7.4-4.67-4.87-4.07-8.42-9.22-11.82-14.55Z"/>
  <path class="ac" d="M29.51,118.52c2.17,5.47,3.63,11.13,4.12,17.04,.05,.63,.34,1.74-.73,1.71-.79-.02-.94-1.04-.99-1.76-.33-4.67-1.08-9.26-2.28-13.78-.27-1.01-.56-2.01-.84-3.01,.24-.06,.48-.13,.72-.19Z"/>
  <path class="ae" d="M33.1,103.7c3.2,5.57,6.15,15.31,5.54,18.4-2.62-5.9-3.9-12.22-5.54-18.4Z"/>
  <path class="g" d="M76.52,136.72c-2.46,2.49-5.24,4.55-8.25,6.31,2-2.92,5.12-4.57,7.74-6.78,.17,.15,.34,.31,.51,.46Z"/>
  <path class="d" d="M17.12,163.26c.2,.19,.4,.37,.6,.56-1.59,.71-3.17,1.42-4.76,2.12,1.07-1.5,2.57-2.18,4.16-2.69Z"/>
  <path class="r" d="M117.3,156.41c1.68,1.11,3.28,2.42,5.53,1.55,1.12-.43,.89,.52,.95,1.07,.38,3.26,2.08,6.03,3.26,9,.22,.56,.5,1.05,1.16,.85,.85-.26,.75-.89,.44-1.55-1.08-2.32-2.22-4.63-3.22-6.98-1.54-3.61-.84-5.91,2.82-8.71,.3,8.92,3.55,17.18,3.28,25.94-.16,5.04-1.62,9.57-5.36,13.13-2.19,2.08-4.76,3.44-7.9,3.24-2.74-.17-4.32-1.79-4.17-4.5,.5-9,.25-17.96-1.16-26.87-.11-.72-.02-1.48-.59-2.06-.02-.6-.03-1.21-.05-1.81-.7-1.21-1.42-2.72-.4-3.75,.91-.91,2.39,.04,3.6,.32,.72,.17,1.33,.57,1.81,1.15Z"/>
  <path class="aa" d="M75.97,157.18c1.46,.06,2.95-.02,4.38,.2,6.18,.97,10.49-2.01,14.31-6.41-.93-.91-2.08-.33-3.72-1.33,2.92-.02,5.08-.28,7.18-.83-1.75,1.8-3.03,3.97-4.85,5.74-5.11,4.94-11.1,4.55-17.31,3.19,0-.19,.01-.38,.02-.57Z"/>
  <path class="o" d="M108.48,147.71c-.4,1.84,.67,2.2,2.17,2.18,3.39-.03,6.79-.03,10.18-.03,.79,0,1.61-.26,2.76,.54-4.32,.29-8.2,.63-12.13,.3-.97-.08-2.5-.79-2.94,.46-.52,1.5,.94,2.17,2.12,2.73,.05,.55-.16,.78-.72,.56-2.94-1.47-3.55-4.28-1.45-6.74Z"/>
  <path class="y" d="M111.24,146.63c-.76,.8-1.8,.92-2.8,1.12-1.42-1.91-2.57-3.93-2.22-6.43,.2-1.43-.68-1.37-1.6-1.37,1.46-.78,2.93-.74,4.41-.04-1.8,1.94-1.56,4.35,.6,5.8,.51,.34,1.21,.36,1.6,.91Z"/>
  <path class="x" d="M109.93,154.45c.24-.19,.48-.37,.72-.56,2.24,.53,4.71,.2,6.67,1.79,0,.24,0,.48-.01,.72-.42-.17-.83-.35-1.26-.51-3.97-1.46-4.31-1.2-3.75,2.79-1.44-.1-1.13-1.28-1.11-2.07,.02-1.06-.39-1.7-1.25-2.17Z"/>
  <path class="s" d="M111.24,146.63c-2.72,0-4.97-3.06-4.37-5.78,.33-1.48,1.4-.73,2.16-.94,.66,.05,1.33,.11,1.99,.16,.94,.72,.16,1.26-.25,1.73-1.23,1.42-1.62,2.61,.54,3.52,1.07,.45,.35,.92-.12,1.32l.05-.03Z"/>
  <path class="c" d="M111.19,146.65c.12-.24,.34-.67,.34-.68-2.95-1.55-2.47-3.27-.33-5.14,.09-.08-.11-.5-.18-.76,.68,.16,.75,.71,.81,1.27-.58,.84-1.95,1.37-1.48,2.64,.54,1.45,1.99,.93,3.08,.95,2.34,.05,4.68-.02,7.02-.04,.59-.25,.72,.03,.65,.55-3.32,.28-6.65,.44-9.91,1.2Z"/>
  <path class="i" d="M109.44,128.16c.66,.14,1.57,.03,1.69,.98,.12,.93-.63,.93-1.29,.89-.7-.04-1.62,.11-1.75-.84-.12-.86,.73-.86,1.35-1.02Z"/>
  <path class="h" d="M121.1,145.46c-.21-.18-.43-.37-.65-.55,1.41-.68,2.9-.53,4.47-.07-1.28,.21-2.55,.42-3.83,.62Z"/>
  <path class="u" d="M73.44,42.9c-.42-4.76,4.43-9.49,8.45-8.96,.95,.13,1.81,.49,1.86,1.63,.06,1.17-.77,1.6-1.74,1.71-3.54,.42-6.28,2.13-8.58,5.62Z"/>
  <path class="b" d="M85.33,60.79c1.36-.13,1.55,.89,2.09,1.43,2.48,2.43,4.84,2.66,7.56,.57,.82-.63,1.57-1.52,2.51-.29,.86,1.12,.06,1.88-.78,2.49-2.48,1.8-5.16,2.36-7.99,.9-2.02-1.05-3.37-2.62-3.39-5.1Z"/>
  <path class="z" d="M104.26,42.05c-1.06-3.36-3.52-4.71-6.75-5.12-1.19-.15-2.58-.62-2.22-2.18,.38-1.67,1.84-1.52,3.13-1.11,2.86,.91,5.43,2.21,6.33,5.43,.28,.99,.41,1.97-.48,2.97Z"/>
  <path class="t" d="M93.65,48.63c2.86-.13,4.09,1.02,4.39,3.04,.33,2.17-.33,4.01-2.66,4.77-2.12,.68-3.93-.14-5.63-1.32-.66-.46-1.03-1.13-.46-1.85,.5-.63,1.12-.31,1.7,.04,1.59,.97,3.37,2.73,4.98,.55,1.5-2.03-.59-3.42-2.32-5.22Z"/>
  <path class="b" d="M76.88,49.76c-1.12-2.56,.19-5.59,2.68-6.41,2.04-.67,4.95,1.07,5.61,3.31,.15,.5,.12,.89-.27,1.22-.44,.38-.98,.63-1.48,.22-.4-.33-.67-.83-1-1.26-1.46-1.9-2.72-1.94-4.09,0-.6,.86-.95,1.89-1.45,2.92Z"/>
  <path class="n" d="M100.3,42.99c1.23-.1,2.2,.58,2.92,1.59,.53,.74,1.1,1.72,.1,2.42-1.03,.72-1.34-.32-1.76-1.02-.83-1.36-1.82-1.3-2.94-.29-.4,.36-.61,1.43-1.42,.75-.72-.61-.24-1.37,.21-1.95,.69-.9,1.59-1.52,2.9-1.5Z"/>
  <path class="ab" d="M49.21,47.96c.79-1.25,1.77-1.31,2.85-.64,1.31,.81,2.72,1.58,3.14,3.23,.14,.54-.12,1.08-.71,1.32-.73,.29-1.25-.11-1.66-.61-.58-.7-1.15-1.41-1.63-2.18-.46-.74-1.23-.85-1.98-1.11Z"/>
</svg>