<?xml version="1.0" encoding="UTF-8"?>
<svg xmlns="http://www.w3.org/2000/svg" viewBox="0 0 1737.77 1088.82">
  <defs>
    <style>
      .c {
        letter-spacing: 0em;
      }

      .d {
        fill: #0d0804;
      }

      .e {
        fill: #0a0e0e;
      }

      .f {
        font-family: Caveat-Regular, Caveat;
        font-size: 70.95px;
      }

      .f, .g, .h {
        fill: #e4e4e4;
      }

      .i {
        fill: #020303;
      }

      .j {
        fill: #0b1212;
      }

      .k {
        fill: #06070c;
      }

      .l {
        fill: #020203;
      }

      .m {
        letter-spacing: 0em;
      }

      .n {
        fill: #0f1515;
      }

      .o {
        fill: #020305;
      }

      .p {
        letter-spacing: 0em;
      }

      .q {
        fill: #cf8a5b;
      }

      .r {
        letter-spacing: 0em;
      }

      .s {
        letter-spacing: .02em;
      }

      .t {
        fill: #212f2f;
      }

      .u {
        letter-spacing: -.05em;
      }

      .v {
        letter-spacing: 0em;
      }

      .w {
        letter-spacing: -.02em;
      }

      .x {
        letter-spacing: 0em;
      }

      .y {
        letter-spacing: -.02em;
      }

      .z {
        fill: #0b0603;
      }

      .aa {
        letter-spacing: -.02em;
      }

      .ab {
        letter-spacing: -.01em;
      }

      .ac {
        letter-spacing: 0em;
      }

      .ad {
        fill: #0e0804;
      }

      .g {
        font-family: Montserrat-Bold, Montserrat;
        font-size: 62.08px;
        font-weight: 700;
      }

      .ae {
        fill: #404c67;
      }

      .af {
        fill: #0e1515;
      }

      .ag {
        fill: #9cd9da;
      }

      .ah {
        letter-spacing: -.02em;
      }

      .h {
        font-family: Montserrat-Regular, Montserrat;
        font-size: 53.21px;
      }

      .ai {
        letter-spacing: -.03em;
      }

      .aj {
        fill: #8ea6de;
      }

      .ak {
        letter-spacing: 0em;
      }

      .al {
        fill: #b87a50;
      }

      .am {
        letter-spacing: -.01em;
      }
    </style>
  </defs>
  <g id="a" data-name="Layer 2">
    <text class="f" transform="translate(794.47 57.12)"><tspan x="0" y="0">“</tspan><tspan class="s" x="18.94" y="0">T</tspan><tspan x="52.86" y="0">hings could be messy when you are </tspan><tspan x="0" y="85.14">managing both online store and </tspan><tspan x="0" y="170.29">physical store.”</tspan></text>
    <text class="g" transform="translate(799.75 712.49)"><tspan class="ai" x="0" y="0">Y</tspan><tspan x="40.11" y="0">OSHI</tspan><tspan class="p" x="202.64" y="0">D</tspan><tspan x="253.3" y="0">A</tspan></text>
    <text class="h" transform="translate(794.26 796.19)"><tspan class="ak" x="0" y="0">A</tspan><tspan x="37.89" y="0">ge: 50</tspan><tspan class="x" x="0" y="63.86">E</tspan><tspan x="35.17" y="63.86">ducation: High S</tspan><tspan class="r" x="475.52" y="63.86">c</tspan><tspan x="505.06" y="63.86">hool G</tspan><tspan class="u" x="677.15" y="63.86">r</tspan><tspan x="695.99" y="63.86">adua</tspan><tspan class="aa" x="830.62" y="63.86">t</tspan><tspan x="851.21" y="63.86">ed</tspan><tspan x="0" y="127.72">Home</tspan><tspan class="y" x="165.23" y="127.72">t</tspan><tspan class="ah" x="185.82" y="127.72">o</tspan><tspan x="218.39" y="127.72">wn: I</tspan><tspan class="c" x="342.43" y="127.72">b</tspan><tspan x="378.35" y="127.72">a</tspan><tspan class="u" x="409.75" y="127.72">r</tspan><tspan x="428.59" y="127.72">aki</tspan><tspan class="w" x="0" y="191.57">F</tspan><tspan x="32.57" y="191.57">amil</tspan><tspan class="v" x="149.05" y="191.57">y</tspan><tspan x="178.32" y="191.57">: Single with a kid</tspan><tspan x="0" y="255.43">O</tspan><tspan class="m" x="44.65" y="255.43">c</tspan><tspan x="74.13" y="255.43">cu</tspan><tspan class="ac" x="139.85" y="255.43">p</tspan><tspan x="175.77" y="255.43">ation:small th</tspan><tspan class="r" x="537.68" y="255.43">r</tspan><tspan x="558.59" y="255.43">ift s</tspan><tspan class="aa" x="652.46" y="255.43">t</tspan><tspan x="673.05" y="255.43">o</tspan><tspan class="am" x="706.42" y="255.43">r</tspan><tspan x="727.07" y="255.43">e </tspan><tspan class="ab" x="773.15" y="255.43">o</tspan><tspan x="805.72" y="255.43">wner</tspan></text>
  </g>
  <g id="b" data-name="Layer 1">
    <path d="M522.53,455.79c12.47,8.02,16.96,24.87,32.56,29.42,1.04,1.34,1.75,2.83,2.16,4.47,2.46,8.05,7,15.15,10.31,22.81,7.77,17.96,12.22,36.45,7.34,55.97-4.03,16.11-1.25,30.64,6.32,45.4,19.65,38.32,27.35,79.63,28.35,122.42,1.99,84.52-12.03,167.38-26.13,250.21-3.79,22.28-7.88,44.52-12.15,66.72-2,10.4-5.62,19.9-15.5,25.57-4.27,5.86-10.29,6.48-17,6.44-64.47-.43-128.95-.51-193.42-1.11-12.05-.11-24.28-.7-35.91-4.84-7.96-5.29-5.45-15.29-9.98-22.13-1.58-5.56,.28-13.23-8.77-14.22-2.81-3.23-4.29-6.87-3.51-11.21,5.11-2.19,10.2-4.47,14.03-8.77-.98-31.39-3.27-62.65-5.66-93.81-2.14-27.92-2.99-55.91-4.25-83.79-3.42-75.53-6.14-151.2-3.28-226.8,1.89-49.98,3.96-100.04,9.46-149.83,.59-5.35,1.55-10.71,.47-16.12-.34-1.77-.29-3.53,.12-5.28,2.33-1.51,4.66-3.03,6.98-4.54,8-1.6,11.38,4.36,15.04,9.46,25.93,36.08,55.54,68.92,87.42,99.79,12.76,12.35,14.81,12.22,24.57-1.84,16.59-23.9,31.37-48.87,43.79-75.19,5.79-12.27,5.44-12.54-8.09-13.17-27.53-1.29-51.93-10.46-72.11-29.58-3.39-3.22-8.73-7.56-5.14-12.37,3.84-5.13,9.86-2.61,14.6,.63,4.46,3.05,8.51,6.67,13.24,9.37,40.62,23.18,88.92,13.42,117.77-23.63,9.46-12.15,16.93-25.25,22.64-39.56,3.24-8.12,1.35-12.79-6.31-16.59-9.71-4.83-19.85-8.66-29.55-13.44-5.62-2.76-13.03-5.97-9.87-13.95,3.27-8.26,11.02-7.13,17.77-4.44,9.14,3.64,18.36,7.53,25.76,14.16,8.52,7.63,11.54,3.99,12.79-5.22,.33-2.44,.79-4.87,1.43-7.24,2.52-9.35-1.21-12.5-10.5-11.86-9.81,.67-19.74,.65-29.1-3.29-5.81-2.45-8.69,.74-12.21,4.9-12.74,15.06-32.24,15.85-46.81,2.42-3.03-2.79-5.63-5.86-3.64-10.25,2.14-4.72,6.18-6.08,11.04-5.08,4.87,1,8.76,4.49,13.6,5.61,3.95,.92,7.96,1.42,10.77-2.37,2.4-3.22,1.82-7.05-.6-9.57-7.17-7.46-7.56-15.86-6.76-25.7,.58-7.17,.18-16.99-10.86-17.94-11-.95-13.76,6.85-15.49,15.84-6.2,32.36-21.34,47.49-50.47,50.99-27.34,3.28-54.52-11.48-65.41-37.95-5.43-13.19-17.06-16.97-26.89-23.77-4.91-3.4-6.49,.8-7.95,4.96-7.21,20.61-10.3,22.04-30.57,14.88-17.57-6.2-31.5,1.31-35.94,19.46-1.78,7.26-2.05,14.67-.83,22,2.54,15.24,12.41,24.98,27.48,25.77,9.93,.52,16.56,4.39,21.39,12.96,11.3,20.03,26.03,36.75,46.15,48.72,11.91,7.08,11.8,11.74,1.02,20.79-5.11,4.29-7,10.75-11.55,15.18-4.57,4.45-9.72,10.2-14.74,.21,.11-.98,.06-2.01,.36-2.93,2.88-8.82,15.45-15.22,12.28-23.6-2.84-7.5-14.27-11.36-20.77-17.96-8.25-8.39-14.72-13.45-29.15-11.45-32.64,4.52-61.56-19.78-67.33-51.85-1.59-8.82-4.53-17.11-8.66-24.96-4.38-8.32-9.63-17.02-9.55-26.09,.18-22.94-10.61-40.3-23.45-57.92-11.26-15.46-12.63-33.54-6.39-52.11,7.54-22.46,17.16-43.9,28.7-64.57,16.26-29.14,39.69-49.16,71.39-60.53,48.43-17.36,97.86-29.46,149.27-32.78,47.19-3.05,87.7,14.58,124.12,42.46,15.62,11.95,10.2,31.06,11.05,47.52,.21,4.1-2.38,8,.62,12.46,18.02,26.85,24.3,57.7,29.38,88.84,1.02,6.25,1.34,11.36,9.69,11.7,5.39,.22,9.38,4.27,8.27,10.11-4.37,22.91-1.58,46.61-12.07,69.12-5.89,12.65-3.18,29.08-5.67,43.58-7.85,45.78-27.81,84.39-67.89,110.49-4.89,9.54-2.4,19.33-.57,28.92,13.1,68.63,24.01,137.62,32.69,206.92,5.07,40.43,8.82,81.05,11.3,121.79,2.39,39.22,6.08,78.36,5.78,117.72-.08,10.5-.92,20.9-1.4,27.77,4.84-41.67,12-86.67,15.46-132.13,3.85-50.61,6.3-101.05-6.94-150.9-4.45-16.77-10.99-32.55-18.73-47.99-6.51-12.99-11.08-26.72-6.21-41.25,11.87-35.42,2-66.59-17.08-96.54-4.65-7.31-13.52-14.03-7.97-24.91Z"/>
    <path class="aj" d="M301.06,1054.97c9.94,5.62,2.35,17.33,8.42,24.29-46.92,4.95-93.72,6.72-140.14-4.58-6.12-1.49-12.59-1.49-18.9-2.19-4.43-4.51-3.07-9.99-2.51-15.3,5.46-51.68,12.77-103.15,17.35-154.92,3.45-39,5.96-78.08,7.33-117.21,.17-4.94,.95-9.74,1.47-14.58,4.29-17,1.81-34.65,4.56-49.72,.24,4.78-1.84,11.45-1.72,18.32,.87,11.44-1.45,22.56-3.45,33.68-1.8,10.02-6.94,13.78-17.48,6.68,10.61,10.37,14.41,21.58,12.12,35.21-12.99,77.19-19.74,155.23-31.29,232.61-1.07,7.2-.8,14.95-7.62,19.97-34.07-2.19-67.95-7.69-102.21-6.15-5.69,.26-8.99-2.58-12.47-5.97-3.8-3.33-3.81-7.8-3.46-12.24,6.89-89.05,11.19-178.43,32.09-265.78,19.79-82.72,45.95-162.84,98.68-231.42,30.34-39.46,67.33-69.96,117.29-81.46,4.06,.94,9.26-4.32,12.03,.69,2.46,4.44-1.99,8.23-4.94,11.3-8.53,8.9-16.55,18.07-22.57,28.98-11.37,20.63-12.21,42.18-6.08,64.28,3.55,12.78,8.48,25.14,11.95,37.97,4.11,15.23,2.33,29.69-6.68,42.29-20.59,28.82-25.02,59.86-21.57,95,9.11,92.67,29.36,182.3,64,268.68,2.42,6.04,3.4,12.13,3.67,18.47-.57,4.39,2.38,7.52,3.98,11.14,4.89,2.5,5.89,7.64,8.14,11.94Z"/>
    <path class="aj" d="M555.8,1078.78c15.45-21.37,15.04-47.33,19.64-71.54,12.74-66.98,23.51-134.31,28.49-202.43,5.07-69.33,3.01-137.43-31.55-200.5-4.66-8.5-5.83-17.42-3.1-27.01,8.03-28.23,1.77-54.21-12.55-79.06-1.48-2.56-8.77-5.93-1.65-10.47,33.68,9.41,53.63,35.15,72.09,61.97,20.98,30.48,31.67,65.47,39.21,101.17,25.89,122.66,48.44,245.99,73.14,368.89,3.14,15.62,2.71,32.67,16.23,44.56-9.95,13.86-25.69,8.02-38.74,11.03-10.25,2.36-21.35-1.14-31.6,3.12-11.28-12.83-18.36-27.42-21.01-44.53-11.16-71.93-20.75-144.07-30.21-216.23-1.52-11.56-3.05-23.62,2.89-34.83-4.87,4.01-4.46,9.89-4.55,15.25-1.47,87.81,6.1,174.8,23.46,260.93,1.27,6.32,4.51,13.42-1.18,19.61-33,.02-66.01,.04-99.01,.06Z"/>
    <path class="q" d="M322,436.83c8.56,6.85,11.48-.1,15.46-5.91,3.85-5.63,2.43-15.59,14.64-14.95,4.28,.23,2.25-6.93-2.01-9.8-8.14-5.47-16.73-10.39-24.26-16.6-12.68-10.46-21.87-23.96-29.29-38.48-3.4-6.66-7.01-9.59-14.85-7.9-12.89,2.77-22.07-3.61-27.73-14.6-8.37-16.26-9.23-33.09-.19-49.41,7.77-14.03,26.44-18.55,39.65-10.29,11.34,7.09,20.6,2.65,22.77-10.49,.76-4.6-3.54-10.82,4.69-13.52,7.57-2.49,8.54,5.86,12.36,6.71,17.17,3.84,20.99,18.39,28.32,30.88,12.67,21.6,39.22,31.99,63.8,26.51,25.47-5.68,38.14-20.1,41.85-48.37,1.3-9.89,2.47-18.36,15.91-18.08,14.37,.3,24.13,12.7,18.08,29.1-2.68,7.24-.43,8.54,3.09,12.13,5.47,5.59,9.56,12.28,4.04,19.62-6.13,8.16-13.91,4.94-21.11,.95-2.57-1.42-4.78-3.47-7.31-4.97-3.47-2.06-6.59-1.63-8.78,2.06-1.98,3.33-.02,5.63,2.33,7.53,16.23,13.16,40.31,13.09,45.23-6.43,1.58-6.28,4.05-6.22,9.09-3.36,12.08,6.83,25.56,8.06,38.67,5.35,9.63-2,9.89,2.16,8.85,8.82-1.66,10.65-3.64,21.25-5.9,34.31-10.36-9.29-19.46-17.25-30.5-22.19-4.47-2-9.06-3.78-13.71-5.34-4.5-1.51-9.41-1.77-11.02,3.74-1.38,4.73,2.84,6.73,6.55,8.39,12.97,5.8,25.97,11.56,38.9,17.47,3.95,1.8,8.31,3.15,6,9.57-14.13,39.14-35.68,71.51-78.22,83.68-29.51,8.44-56.21,.7-80.83-16.62-4.15-2.92-7.51-10.33-16.16-4.22,21.68,24.7,48.69,35.61,80.66,35.38,17.25-.13,17.21-.37,9.55,15.76-13.93,29.33-30.5,57.1-48.32,84.23-7.28,11.07-13.63,12.42-22.93,2.96-32.42-33.02-63.88-66.85-90.93-104.53-3.7-5.16-6.64-11.03-13.32-13.12,5.65-1.99,11.28-3.97,16.91-5.94Z"/>
    <path class="aj" d="M522.53,455.79c-.65,5.42,2.88,9.03,5.42,13.21,6.13,10.06,12.32,20.12,17.66,30.6,11.53,22.66,16.11,46.12,7.54,71.16-4.77,13.95-4.75,28.26,2.39,41.55,28.5,53.04,33.74,110.15,30.44,168.92-3.33,59.37-10.12,118.31-20.37,177.37-4.44-4.45-3.28-9.66-3.36-14.34-1.49-90.05-7.67-179.8-19.03-269.1-8.98-70.64-20.24-140.98-34.02-210.88-1.39-7.04-6.05-16.17,6.99-17.91,1.74,3.39,6.71,4.6,6.33,9.42Z"/>
    <path class="i" d="M259.54,466.49c-69.23,21.54-113.98,70.53-147.29,132.01-40.43,74.61-62.46,155.23-76.62,238.31-12.32,72.25-15.53,145.4-21.11,218.31-2.11,3.36-4.1,7.17-9.06,5.47-4.13-1.42-3.61-5.56-4.06-8.75-3.34-23.63,.17-47.18,1.67-70.67,5.99-93.4,18.32-185.84,47.04-275.35,17.6-54.86,39.38-107.89,73.43-154.98,29.29-40.5,66.04-71.13,115.1-84.86,4.65-1.3,9.61-1.47,14.43-2.17,2.95-1.04,6.19-2.77,6.47,2.67Z"/>
    <path class="l" d="M755.74,1064.37c-9.13,.72-13.26-4.12-14.89-12.6-21.6-111.71-43.2-223.43-65.04-335.09-6.58-33.65-12.93-67.34-22.98-100.26-16.8-55.03-45.71-100.55-97.74-128.65,0-.85,0-1.71,0-2.56,38.48,8.43,65.21,32.66,85.76,64.69,24.9,38.84,34.99,83.01,44.11,127.34,25.25,122.74,50.09,245.55,75.35,368.29,1.54,7.5,.95,13.52-4.56,18.84Z"/>
    <path class="k" d="M259.54,466.49c-2.16-.89-4.31-1.78-6.47-2.67,16.27-2.09,31.93-5.84,45.05-16.51,.13,.77,.14,1.55,.04,2.32,.62,9.4-7.07,13.61-12.39,18.96-13.57,13.66-27.01,27.23-35.1,45.21-7.4,16.45-9.3,32.89-3.13,50.18,3.8,10.66,7.24,21.45,11.16,32.08,7.6,20.6,7.95,41.53-5.29,59.37-22.62,30.46-21.66,64.8-18.23,99.14,8.87,88.69,30.08,174.51,63.49,257.24,1.74,4.31,5.18,8.75,1.42,13.75-2.13,4.91-5.25,8.07-11.15,6.34-24.42-52.77-40.44-108.27-53.2-164.79-10.08-44.64-16.21-89.91-19.98-135.48-2.33-28.17,1.96-54.84,19.88-78.06,13.14-17.03,15.73-35.88,6.76-55.48-23.23-50.8-16.59-95.3,28.12-131.57-4.78-3.59-7.63,1.08-10.98-.03Z"/>
    <path class="l" d="M654.82,1078.72c-18.13-93.74-29.61-188.09-26.22-283.82,.07-1.96-.89-4.82,.07-5.72,3.03-2.84-4.54-15.89,8.83-9.35,1.15,.56,5.28-4.99,8.44-8.11-19.2,47.04,1.26,92.38,5.24,138.07,3.82,43.89,12.76,87.34,19.27,131.01,1.3,8.74,1.86,17.27,10.61,22.81,5.08,3.22,4.17,9.54,4.33,14.92-11.37,13.67-19.84,13.72-30.59,.19Z"/>
    <path class="o" d="M177.43,768.77c-1.59,88.61-11.37,176.53-22.05,264.37-1.6,13.13-3.29,26.24-4.94,39.36-9.97,9.94-16.87,7.45-21.24-5.26,9.03-51.16,13.69-102.9,20.69-154.33,4.23-31.06,7.39-62.31,13.05-93.1,2.83-15.41,1.48-27.63-10.13-38.46-3.38-3.15-5.6-7.55-9.79-13.37,11.38,1.98,15.53,11.45,24.21,14.74,4.02-14.71,5.55-29.15,6.96-43.62,8.76,9.05,2.84,19.71,3.23,29.67Z"/>
    <path class="aj" d="M300.09,1025.56c-31.89-77.56-54.56-157.65-65.21-240.92-2.8-21.92-4.68-44-5.84-66.06-1.08-20.64,3.85-40.23,16.59-56.89,17.08-22.31,18.7-46.52,7.18-70.79-26.6-56.04-8.71-87.58,29.38-124.4,5.56-5.38,12.3-9.68,15.96-16.87,7.65,2.24,5.6,8.49,5.01,13.47-10.64,89.5-12.32,179.39-10.82,269.34,1.58,94.83,6.26,189.55,13.46,284.14,.4,5.26,.05,10.58,.05,16.05-5.83,.32-3.26-5.34-5.77-7.06Z"/>
    <path class="ag" d="M196.82,228.7c-16.49-16.7-21.23-35.78-15.62-54.69,9.65-32.51,23.45-63.57,46.37-89.58,12.72-14.43,28.61-24.22,46.6-29.96,44.92-14.33,90.05-27.55,137.56-31.2,37.56-2.89,72.09,5.18,104.8,22.98,1.74,.95,3.22,2.27,2.72,4.58-56.42-10-110.94-3.74-162.44,21.58-36.23,17.82-51.14,52.72-65.09,87.68-7.86,19.68-13.78,40.09-16.56,61.01-1.43,10.76-5.88,12.57-15.16,11.99-8.22-.52-16.67-1.46-24.73,2.23-4.66,2.13-9.89,3.92-8.42,10.12,1.56,6.59,6.88,4.89,11.98,4.35,10.48-1.11,21.06-1.35,31.16-1.92,1.51,5.1-.88,5.69-3.27,6.51-20.92,7.15-29.78,23.06-30.91,43.93-1.23,22.91,6.91,41.38,27.6,52.97,6.12,3.43,12.87,4.74,19.96,3.92,3.55-.41,5.69,1.15,5.49,4.94-.19,3.66-3.17,2.93-5.43,3.2-18.96,2.29-44.15-14.54-48.02-33.18-2.82-13.62-7.67-26.08-14.28-38.29-12.55-23.18-15.46-48.39-13.42-74.39,.91-11.62,1.38-23.28,1.1-35.04-8.09,13.88-7.21,30.01-11.98,46.23Z"/>
    <path class="q" d="M560.69,206.75c-13.3,2.74-22.06-3.21-31.63-4.59-10.52-1.52-23.65-5.81-24.45,12.63-.13,3.01-3.19,3.28-5.3,4.36-11.9,6.08-24.39,7.35-37.18,3.88-2.4-.65-8.43,.26-6.25-5.45,5.09-13.3-4.87-12.28-11.54-11.06-30.25,5.56-61.33,7.19-90.48,18.17-10.08,3.8-20.35,6.79-31.08,8.12-7.97,.98-10.64-2.24-9.18-10.15,2.98-16.26,7.35-31.64,21.71-41.96,8.76-6.3,13.74-15.36,17.15-25.19,9.15-26.38,29.37-38.73,55.28-42.3,36.03-4.96,72.44-5.97,108.74-6.94,14.36-.38,26.68,4.49,33.55,20.54,10.13,23.69,17.28,47.95,21.68,73.16,2.75,15.75-8.91,5.94-11.03,6.78Z"/>
    <path class="al" d="M448.42,238.61c.33,3.54-2.31,6.42-3.71,5.43-4.96-3.5-11.62-5.19-14.49-10.99-1.12-2.27,1.59-4.83,4.11-4.58,6.73,.67,11.17,4.87,14.09,10.14Z"/>
    <path class="k" d="M301.06,1054.97c-5.36-2.17-6.6-7.16-8.14-11.94,1.4-1.17,2.8-2.34,4.19-3.51,2.86,4.75,7.39,9.08,3.95,15.44Z"/>
    <path class="ae" d="M177.43,768.77c-3.17-9.66,2.7-20.31-3.23-29.67,1.11-8.99,2.22-17.98,3.33-26.97,2.25,19.02,3.73,37.88-.09,56.65Z"/>
    <path class="ad" d="M419.77,350.62c16.6-16.35,37.98-24.08,59.64-31.14,4.12-1.34,8.62,.91,9.84,4.52,1.9,5.58-3.19,7.55-7.42,8.75-20.54,5.81-41.16,11.32-62.06,17.88Z"/>
    <path class="z" d="M493.75,360.75c-6.55-.17-12.29-1.35-16.94-5.35-3.35-2.88-7.18-6.5-3.85-11.14,3.06-4.26,6.09,.24,8.62,1.78,4.86,2.97,9.32,2.11,13.86-.32,7.25-3.88,17.43-7.67,20.03,1.56,2.59,9.19-9.47,10.09-16.47,12.7-1.78,.67-3.85,.58-5.25,.76Z"/>
    <path class="d" d="M262.67,293.64c19.61-10.54,48.8,4.36,49.23,25.41-14.94-12.68-31.06-20.74-49.23-25.41Z"/>
    <path class="j" d="M240.89,148.24c7.01,1.91,14.01,3.7,19.2,9.44,2.51,2.77,4.22,5.87,2.21,9.08-2.5,4-5.93,1.64-8.81-.07-5.39-3.21-10.76-6.46-16.01-9.9-2.3-1.5-5.65-3.02-4.2-6.57,1.42-3.48,4.84-2.09,7.6-1.98Z"/>
    <path class="af" d="M252.77,111.74c15.45,1.37,24.91,6.47,34.57,10.68,2.95,1.29,6.5,4.05,4.31,8.05-2.64,4.8-6.87,2.72-10.15,.61-8.49-5.45-16.76-11.24-28.72-19.34Z"/>
    <path class="e" d="M284.96,80.85c11.43,1.48,23.44,1.83,33.14,14.45-15.4,.05-22.98-10.21-33.14-14.45Z"/>
    <path class="n" d="M323.37,55.05c2.17-1.28,2.6-1.76,2.99-1.73,7.21,.54,14.11,2.13,18.94,7.99,1.17,1.42,.06,4-2.27,4.14-8.65,.53-12.83-6.21-19.66-10.4Z"/>
    <path class="t" d="M363.82,40.08c6.93-1.1,12.55,.96,17.02,5.87,.33,.36-1.15,3.44-1.77,3.44-6.8-.08-11.76-3.39-15.25-9.31Z"/>
  </g>
</svg>